# xmcd
#
# Track frame offsets:
#	150
#	13256
#	23472
#	38738
#	49438
#	59167
#	71786
#	83708
#	94896
#	107097
#
# Disc length: 1683 seconds
#
# Revision: 2
# Processed by: cddbd v1.5.2PL0 Copyright (c) Steve Scherf et al.
# Submitted via: EasyCDDAExtractor 16.0.8.1
#
DISCID=8706910a
DTITLE=Various Artist - Wide Open Country
DYEAR=1900
DGENRE=Country
TTITLE0=Lynn Anderson - Rose Graden
TTITLE1=Conway Twitty - It's Only Make Believe
TTITLE2=Kenny Rogers - For The Good Times
TTITLE3=Patsy Cline - There Cigarettes in an Ashtray
TTITLE4=Leroy Van Dyke - Walk on By
TTITLE5=Johnny Paycheck - Take This Job And Shove It
TTITLE6=Donna Fargo - Funny Face
TTITLE7=Patsy Cline - Angel
TTITLE8=Freddy Fender - Before The Next Teardrop Falls
TTITLE9=Alabama - I Want To Be With You Tonight
EXTD=
EXTT0=
EXTT1=
EXTT2=
EXTT3=
EXTT4=
EXTT5=
EXTT6=
EXTT7=
EXTT8=
EXTT9=
PLAYORDER=
